<svg width="179" height="95" xmlns="http://www.w3.org/2000/svg" xmlns:xlink="http://www.w3.org/1999/xlink" xml:space="preserve" overflow="hidden"><defs><clipPath id="clip0"><rect x="0" y="531" width="179" height="95"/></clipPath><clipPath id="clip1"><path d="M137.078 588.811C136.544 590.345 135.901 591.864 135.241 593.379 134.145 596.026 132.829 598.577 131.306 601.004 130.45 602.482 129.115 603.623 127.522 604.237 126.972 604.429 126.427 604.651 125.876 604.823 122.542 605.794 119.133 606.489 115.685 606.903 114.991 606.958 114.303 607.071 113.627 607.238 113.744 607.285 113.865 607.323 113.987 607.352 115.662 607.521 117.298 607.793 118.913 608.108 121.339 608.495 123.704 609.194 125.952 610.186 127.02 610.656 127.78 611.635 127.971 612.789 128.174 613.902 128.277 615.032 128.279 616.165 128.278 619.304 128.04 622.439 127.565 625.542 127.543 625.695 127.465 625.874 127.648 625.997 127.702 625.871 127.747 625.789 127.774 625.706 128.618 623.546 129.483 621.389 130.478 619.254 131.469 616.997 132.666 614.836 134.054 612.8 134.91 611.583 136.119 610.66 137.517 610.154 141.219 608.886 145.047 608.023 148.935 607.579 149.667 607.468 150.396 607.388 151.126 607.295L151.145 607.151C150.112 606.997 149.072 606.86 148.047 606.688 145.225 606.278 142.45 605.591 139.761 604.639 137.986 604.097 136.772 602.458 136.767 600.599 136.761 600.465 136.744 600.337 136.732 600.206 136.547 597.117 136.66 594.017 137.072 590.951 137.161 590.129 137.266 589.304 137.371 588.457 137.218 588.514 137.107 588.649 137.081 588.811"/></clipPath><clipPath id="clip2"><path d="M113.322 530.999C113.17 531.057 113.059 531.191 113.032 531.352 112.498 532.886 111.856 534.406 111.195 535.92 110.1 538.568 108.783 541.119 107.26 543.545 106.405 545.023 105.072 546.164 103.481 546.779 102.931 546.971 102.386 547.191 101.835 547.364 98.4989 548.335 95.0901 549.032 91.6404 549.446 90.9463 549.501 90.2572 549.613 89.581 549.781 89.6985 549.827 89.819 549.865 89.9425 549.894 91.6176 550.063 93.2528 550.335 94.868 550.651 97.2939 551.039 99.6591 551.737 101.907 552.729 102.975 553.198 103.735 554.175 103.927 555.328 104.129 556.442 104.232 557.572 104.234 558.704 104.234 561.843 103.995 564.978 103.52 568.081 103.499 568.233 103.42 568.414 103.604 568.536 103.659 568.411 103.697 568.328 103.73 568.246 104.574 566.085 105.438 563.928 106.434 561.794 107.425 559.537 108.623 557.376 110.011 555.34 110.866 554.123 112.075 553.2 113.473 552.694 117.175 551.427 121.003 550.563 124.891 550.118 125.623 550.01 126.352 549.929 127.082 549.835L127.101 549.691C126.067 549.539 125.028 549.4 124.003 549.228 121.181 548.818 118.406 548.132 115.717 547.179 113.942 546.637 112.727 544.998 112.723 543.138 112.717 543.006 112.7 542.877 112.688 542.746 112.502 539.658 112.616 536.558 113.028 533.492 113.112 532.675 113.218 531.85 113.322 530.999Z"/></clipPath><clipPath id="clip3"><path d="M41.4384 530.999C41.285 531.056 41.1744 531.191 41.1486 531.352 40.6138 532.886 39.9715 534.406 39.3112 535.92 38.2148 538.568 36.8983 541.119 35.3756 543.545 34.5202 545.023 33.1867 546.164 31.5963 546.779 31.0466 546.971 30.5009 547.191 29.9502 547.364 26.614 548.335 23.2042 549.032 19.7546 549.446 19.0605 549.502 18.3714 549.614 17.6952 549.781 17.8127 549.827 17.9342 549.865 18.0577 549.894 19.7327 550.063 21.3679 550.335 22.9831 550.651 25.4091 551.039 27.7752 551.737 30.0229 552.729 31.0904 553.198 31.8503 554.176 32.0415 555.328 32.2456 556.442 32.3482 557.572 32.3482 558.704 32.3482 561.843 32.1092 564.978 31.6352 568.081 31.6132 568.233 31.5356 568.414 31.7178 568.536 31.7726 568.411 31.8114 568.328 31.8443 568.246 32.6878 566.085 33.5522 563.928 34.548 561.794 35.5409 559.537 36.7399 557.377 38.1301 555.341 38.9866 554.124 40.1945 553.201 41.5917 552.695 45.2943 551.428 49.1224 550.564 53.0102 550.119 53.7422 550.011 54.4701 549.93 55.2011 549.836 55.2071 549.788 55.213 549.736 55.219 549.692 54.1863 549.54 53.1466 549.401 52.1219 549.229 49.2996 548.819 46.5252 548.133 43.8364 547.18 42.0608 546.638 40.8458 544.999 40.8418 543.139 40.8349 543.007 40.8179 542.878 40.807 542.747 40.6208 539.659 40.7353 536.559 41.1476 533.493 41.2322 532.675 41.3368 531.85 41.4384 530.999Z"/></clipPath><clipPath id="clip4"><path d="M4.21526 530.999C4.06187 531.056 3.95134 531.191 3.92545 531.352 3.39069 532.886 2.74834 534.406 2.08809 535.92 0.992676 538.568-0.323868 541.119-1.84752 543.545-2.70297 545.023-4.03642 546.164-5.62678 546.779-6.1765 546.971-6.72223 547.191-7.27395 547.364-10.61 548.335-14.0189 549.032-17.4685 549.446-18.1626 549.501-18.8508 549.614-19.5269 549.781-19.4095 549.827-19.289 549.865-19.1654 549.894-17.4904 550.063-15.8552 550.335-14.24 550.651-11.814 551.039-9.44889 551.737-7.20125 552.729-6.13368 553.198-5.37384 554.176-5.18164 555.328-4.97848 556.442-4.87591 557.572-4.87494 558.704-4.87591 561.843-5.11493 564.978-5.58895 568.081-5.61086 568.233-5.68854 568.414-5.50628 568.536-5.45152 568.411-5.40672 568.328-5.37982 568.246-4.53632 566.085-3.67093 563.928-2.67608 561.794-1.68521 559.537-0.488192 557.376 0.900043 555.34 1.7565 554.123 2.96545 553.2 4.36263 552.694 8.06524 551.427 11.8933 550.563 15.7801 550.118 16.5121 550.01 17.241 549.929 17.971 549.835 17.977 549.787 17.983 549.735 17.9889 549.691 16.9562 549.539 15.9176 549.4 14.8918 549.228 12.0696 548.818 9.2951 548.132 6.60631 547.179 4.83068 546.636 3.61674 544.997 3.61175 543.138 3.60479 543.006 3.58786 542.877 3.57689 542.746 3.39169 539.658 3.5052 536.558 3.91749 533.492 4.00912 532.675 4.11466 531.85 4.21526 530.999Z"/></clipPath><clipPath id="clip5"><path d="M64.6428 588.811C64.108 590.345 63.4657 591.864 62.8054 593.379 61.709 596.027 60.3925 598.577 58.8698 601.004 58.0144 602.481 56.6809 603.622 55.0906 604.237 54.5408 604.429 53.9951 604.651 53.4444 604.823 50.1083 605.794 46.6995 606.489 43.2498 606.903 42.5557 606.959 41.8676 607.071 41.1914 607.238 41.3089 607.285 41.4294 607.323 41.5529 607.352 43.2279 607.521 44.8631 607.793 46.4784 608.108 48.9043 608.495 51.2695 609.194 53.5171 610.186 54.5847 610.656 55.3445 611.633 55.5367 612.786 55.7399 613.899 55.8424 615.029 55.8444 616.161 55.8434 619.301 55.6044 622.436 55.1304 625.539 55.1085 625.692 55.0308 625.871 55.213 625.994 55.2678 625.868 55.3126 625.786 55.3395 625.703 56.183 623.543 57.0484 621.386 58.0433 619.251 59.0341 616.994 60.2312 614.833 61.6194 612.797 62.4758 611.58 63.6848 610.657 65.082 610.151 68.7846 608.883 72.6126 608.02 76.4995 607.576 77.2314 607.465 77.9604 607.385 78.6904 607.292 78.6963 607.244 78.7033 607.192 78.7083 607.148 77.6756 606.994 76.6369 606.857 75.6112 606.685 72.7889 606.275 70.0145 605.588 67.3256 604.636 65.55 604.094 64.3361 602.455 64.3311 600.596 64.3241 600.462 64.3072 600.334 64.2962 600.203 64.111 597.114 64.2245 594.014 64.6368 590.948 64.7265 590.126 64.831 589.301 64.9356 588.454 64.7822 588.511 64.6717 588.646 64.6458 588.808"/></clipPath><clipPath id="clip6"><path d="M27.4197 588.811C26.8849 590.345 26.2426 591.864 25.5823 593.379 24.4859 596.027 23.1694 598.577 21.6467 601.004 20.7923 602.481 19.4588 603.622 17.8684 604.237 17.3187 604.429 16.773 604.651 16.2223 604.823 12.8852 605.794 9.47537 606.49 6.02473 606.903 5.3306 606.959 4.64248 607.071 3.96628 607.238 4.08381 607.285 4.20528 607.323 4.32879 607.352 6.00379 607.521 7.63802 607.793 9.25428 608.108 11.6802 608.495 14.0453 609.194 16.293 610.186 17.3625 610.656 18.1224 611.635 18.3136 612.789 18.5167 613.902 18.6193 615.032 18.6213 616.165 18.6203 619.304 18.3823 622.439 17.9073 625.542 17.8854 625.695 17.8077 625.874 17.9899 625.997 18.0457 625.871 18.0895 625.789 18.1164 625.706 18.9609 623.546 19.8253 621.389 20.8212 619.254 21.812 616.997 23.0091 614.836 24.3973 612.8 25.2537 611.583 26.4617 610.66 27.8589 610.154 31.5614 608.886 35.3895 608.023 39.2764 607.579 40.0083 607.468 40.7373 607.388 41.4672 607.295L41.4861 607.151C40.4525 606.997 39.4138 606.86 38.3891 606.688 35.5668 606.278 32.7913 605.591 30.1025 604.639 28.3269 604.097 27.113 602.458 27.108 600.599 27.101 600.465 27.0851 600.337 27.0731 600.206 26.8879 597.117 27.0014 594.017 27.4137 590.951 27.5033 590.129 27.6129 589.304 27.7125 588.457 27.5601 588.515 27.4496 588.65 27.4227 588.811"/></clipPath><clipPath id="clip7"><path d="M52.6198 558.557C52.085 560.091 51.4427 561.61 50.7825 563.125 49.686 565.773 48.3695 568.324 46.8459 570.75 45.9914 572.228 44.658 573.369 43.0676 573.984 42.5179 574.176 41.9721 574.397 41.4214 574.57 38.0853 575.54 34.6755 576.236 31.2269 576.649 30.5327 576.704 29.8446 576.816 29.1684 576.983 29.2859 577.03 29.4064 577.068 29.5299 577.097 31.205 577.266 32.8401 577.538 34.4554 577.853 36.8813 578.241 39.2475 578.939 41.4951 579.931 42.5627 580.401 43.3225 581.379 43.5147 582.531 43.7169 583.645 43.8205 584.775 43.8215 585.907 43.8205 589.046 43.5824 592.181 43.1084 595.284 43.0865 595.438 43.0088 595.618 43.1911 595.74 43.2458 595.615 43.2847 595.532 43.3175 595.45 44.161 593.289 45.0254 591.132 46.0213 588.998 47.0122 586.741 48.2092 584.58 49.5974 582.544 50.4538 581.328 51.6618 580.404 53.059 579.898 56.7616 578.632 60.5897 577.771 64.4775 577.329 65.2094 577.219 65.9374 577.139 66.6684 577.045 66.6744 576.997 66.6813 576.945 66.6863 576.901 65.6536 576.748 64.6139 576.611 63.5892 576.438 60.7669 576.028 57.9925 575.342 55.3037 574.389 53.528 573.847 52.3131 572.208 52.3091 570.348 52.3022 570.215 52.2852 570.087 52.2743 569.956 52.0881 566.867 52.2016 563.768 52.6138 560.701 52.7035 559.879 52.813 559.054 52.9126 558.207 52.7592 558.264 52.6487 558.4 52.6228 558.561"/></clipPath><clipPath id="clip8"><path d="M15.3967 558.557C14.8619 560.091 14.2196 561.61 13.5594 563.125 12.4629 565.773 11.1464 568.324 9.62376 570.75 8.76931 572.228 7.43584 573.369 5.84447 573.984 5.29476 574.176 4.74902 574.397 4.19834 574.57 0.862212 575.54-2.54761 576.236-5.99624 576.649-6.69038 576.704-7.37849 576.816-8.05469 576.983-7.93717 577.03-7.81667 577.068-7.69319 577.097-6.01815 577.266-4.38296 577.538-2.7677 577.853-0.341793 578.241 2.02337 578.939 4.27103 579.931 5.33858 580.401 6.09842 581.379 6.29061 582.531 6.49378 583.645 6.59635 584.775 6.59735 585.907 6.59635 589.046 6.35832 592.181 5.88431 595.284 5.8624 595.438 5.78472 595.618 5.96695 595.74 6.02174 595.615 6.06654 595.532 6.09343 595.45 6.93694 593.289 7.80132 591.132 8.79718 588.998 9.78805 586.741 10.9851 584.58 12.3733 582.544 13.2298 581.328 14.4377 580.404 15.8349 579.898 19.5375 578.63 23.3656 577.767 27.2534 577.323 27.9853 577.213 28.7143 577.133 29.4443 577.039 29.4503 576.991 29.4572 576.939 29.4622 576.895 28.4295 576.742 27.3908 576.605 26.3651 576.432 23.5428 576.022 20.7684 575.336 18.0796 574.383 16.3039 573.84 15.09 572.201 15.085 570.342 15.0781 570.209 15.0611 570.081 15.0502 569.95 14.8649 566.861 14.9795 563.762 15.3907 560.695 15.4804 559.873 15.5849 559.048 15.6895 558.201 15.5361 558.258 15.4256 558.394 15.3997 558.555"/></clipPath><clipPath id="clip9"><path d="M163.851 558.557C163.316 560.091 162.674 561.61 162.014 563.125 160.917 565.773 159.601 568.323 158.078 570.75 157.224 572.228 155.89 573.369 154.299 573.984 153.75 574.176 153.203 574.397 152.653 574.57 149.317 575.54 145.908 576.236 142.459 576.649 141.765 576.704 141.076 576.816 140.4 576.983 140.517 577.03 140.638 577.068 140.761 577.097 142.436 577.266 144.071 577.538 145.687 577.853 148.112 578.241 150.479 578.939 152.727 579.931 153.795 580.401 154.554 581.379 154.746 582.531 154.948 583.645 155.051 584.775 155.053 585.907 155.053 589.046 154.814 592.181 154.34 595.284 154.318 595.438 154.24 595.618 154.422 595.74 154.478 595.615 154.516 595.532 154.549 595.45 155.392 593.289 156.257 591.132 157.252 588.998 158.243 586.741 159.441 584.58 160.83 582.544 161.686 581.328 162.894 580.404 164.291 579.898 167.994 578.63 171.822 577.767 175.71 577.323 176.442 577.213 177.17 577.133 177.9 577.039L177.919 576.895C176.887 576.742 175.846 576.605 174.821 576.432 172 576.022 169.225 575.336 166.537 574.383 164.761 573.841 163.546 572.202 163.542 570.342 163.535 570.209 163.518 570.081 163.507 569.95 163.321 566.861 163.436 563.762 163.848 560.695 163.938 559.873 164.042 559.048 164.147 558.201 163.993 558.258 163.883 558.394 163.857 558.555"/></clipPath><clipPath id="clip10"><path d="M126.628 558.557C126.093 560.091 125.451 561.61 124.791 563.125 123.695 565.773 122.379 568.323 120.856 570.75 120.001 572.228 118.668 573.369 117.077 573.984 116.527 574.176 115.981 574.397 115.429 574.57 112.094 575.54 108.685 576.236 105.236 576.649 104.542 576.704 103.853 576.816 103.176 576.983 103.294 577.03 103.414 577.068 103.538 577.097 105.213 577.266 106.848 577.538 108.463 577.853 110.889 578.241 113.255 578.939 115.502 579.931 116.57 580.401 117.33 581.379 117.522 582.531 117.725 583.645 117.827 584.775 117.829 585.907 117.828 589.046 117.59 592.181 117.116 595.284 117.094 595.438 117.017 595.618 117.198 595.74 117.254 595.615 117.298 595.532 117.325 595.45 118.168 593.289 119.033 591.132 120.028 588.998 121.019 586.741 122.217 584.58 123.605 582.544 124.462 581.327 125.67 580.404 127.067 579.898 130.772 578.632 134.602 577.771 138.49 577.329 139.222 577.219 139.951 577.139 140.681 577.045 140.687 576.997 140.694 576.945 140.7 576.901 139.668 576.748 138.628 576.611 137.602 576.438 134.78 576.028 132.005 575.342 129.317 574.389 127.541 573.847 126.327 572.207 126.323 570.348 126.316 570.215 126.299 570.087 126.288 569.956 126.103 566.867 126.218 563.768 126.63 560.701 126.718 559.879 126.823 559.054 126.929 558.207 126.776 558.265 126.666 558.4 126.639 558.561"/></clipPath><clipPath id="clip11"><path d="M89.4057 558.557C88.871 560.091 88.2287 561.61 87.5684 563.125 86.473 565.773 85.1564 568.323 83.6338 570.75 82.7783 572.228 81.4449 573.369 79.8545 573.984 79.3048 574.176 78.7591 574.397 78.2084 574.57 74.8722 575.54 71.4624 576.236 68.0128 576.649 67.3187 576.704 66.6305 576.816 65.9544 576.983 66.0718 577.03 66.1923 577.068 66.3148 577.097 67.9909 577.266 69.6251 577.538 71.2403 577.853 73.6663 578.241 76.0324 578.939 78.28 579.931 79.3476 580.401 80.1065 581.379 80.2987 582.531 80.5018 583.645 80.6044 584.775 80.6064 585.907 80.6064 589.046 80.3674 592.181 79.8933 595.284 79.8704 595.438 79.7938 595.618 79.976 595.74 80.0328 595.615 80.0756 595.532 80.1035 595.45 80.947 593.289 81.8114 591.132 82.8062 588.998 83.7971 586.741 84.9951 584.58 86.3833 582.544 87.2398 581.328 88.4478 580.404 89.8449 579.898 93.5475 578.63 97.3756 577.767 101.263 577.323 101.995 577.213 102.724 577.133 103.454 577.039 103.46 576.991 103.467 576.939 103.474 576.895 102.441 576.742 101.401 576.605 100.376 576.432 97.5538 576.022 94.7784 575.336 92.0896 574.383 90.314 573.841 89.1 572.201 89.0961 570.342 89.0891 570.209 89.0732 570.081 89.0612 569.95 88.876 566.861 88.9905 563.762 89.4028 560.695 89.4914 559.873 89.596 559.048 89.7015 558.201 89.5492 558.259 89.4386 558.394 89.4117 558.555"/></clipPath></defs><g clip-path="url(#clip0)" transform="matrix(1 0 0 1 0 -531)"><g clip-path="url(#clip1)"><path d="M0 0 37.5169 0 37.5169 37.4771 3.34302e-07 37.4771Z" fill="#324EFF" transform="matrix(1 0 0 1.00177 113.627 588.457)"/></g><g clip-path="url(#clip2)"><path d="M0 0 37.5179 0 37.5179 37.4761-2.12738e-07 37.4761Z" fill="#324EFF" transform="matrix(1 0 0 1.00177 89.577 531)"/></g><g clip-path="url(#clip3)"><path d="M0 0 37.5179 0 37.5179 37.4761-2.12738e-07 37.4761Z" fill="#324EFF" transform="matrix(1 0 0 1.00177 17.6962 531)"/></g><g clip-path="url(#clip4)"><path d="M0 0 37.5169 0 37.5169 37.4761 3.34302e-07 37.4761Z" fill="#324EFF" transform="matrix(1 0 0 1.00177 -19.526 531)"/></g><g clip-path="url(#clip5)"><path d="M0 0 37.5169 0 37.5169 37.4771 3.34302e-07 37.4771Z" fill="#324EFF" transform="matrix(1 0 0 1.00177 41.1914 588.457)"/></g><g clip-path="url(#clip6)"><path d="M0 0 37.5179 0 37.5179 37.4771-2.12738e-07 37.4771Z" fill="#324EFF" transform="matrix(1 0 0 1.00177 3.96828 588.457)"/></g><g clip-path="url(#clip7)"><path d="M0 0 37.5169 0 37.5169 37.4771 3.34302e-07 37.4771Z" fill="#324EFF" transform="matrix(1 0 0 1.00177 29.1684 558.203)"/></g><g clip-path="url(#clip8)"><path d="M0 0 37.5169 0 37.5169 37.4771 3.34302e-07 37.4771Z" fill="#324EFF" transform="matrix(1 0 0 1.00177 -8.05469 558.203)"/></g><g clip-path="url(#clip9)"><path d="M0 0 37.5179 0 37.5179 37.4771-2.12738e-07 37.4771Z" fill="#324EFF" transform="matrix(1 0 0 1.00177 140.4 558.203)"/></g><g clip-path="url(#clip10)"><path d="M0 0 37.5179 0 37.5179 37.4771-2.12738e-07 37.4771Z" fill="#324EFF" transform="matrix(1 0 0 1.00177 103.176 558.203)"/></g><g clip-path="url(#clip11)"><path d="M0 0 37.5179 0 37.5179 37.4771-2.12738e-07 37.4771Z" fill="#324EFF" transform="matrix(1 0 0 1.00177 65.9543 558.203)"/></g></g></svg>